<svg xmlns="http://www.w3.org/2000/svg" width="26" height="20" viewBox="0 0 26 20">
    <g fill="none" fill-rule="evenodd">
        <path d="M-2-7h30v30H-2z"/>
        <path fill="#5C6265" fill-rule="nonzero" d="M23.8 8.6a1.8 1.8 0 0 0 0 3.6h.6V11h-.6a.6.6 0 1 1 0-1.2h.6V8.6h-.6zM10 6.2V.8a.6.6 0 1 1 1.2 0v5.4H19a.6.6 0 1 1 0 1.2H3.4a.6.6 0 1 1 0-1.2H10zM13 9.8h1.2a.6.6 0 1 0 0-1.2H13a.6.6 0 1 0 0 1.2zM20.2 19.4a3 3 0 1 1 0-6 3 3 0 0 1 0 6zm0-1.2a1.8 1.8 0 1 0 0-3.6 1.8 1.8 0 0 0 0 3.6zM5.8 19.4a3 3 0 1 1 0-6 3 3 0 0 1 0 6zm0-1.2a1.8 1.8 0 1 0 0-3.6 1.8 1.8 0 0 0 0 3.6z"/>
        <path fill="#5C6265" fill-rule="nonzero" d="M16.614 1.657A3 3 0 0 0 14.04.2H7.425a3 3 0 0 0-2.786 1.886l-1.711 4.28-.87.434A3 3 0 0 0 .4 9.483V14a1.8 1.8 0 0 0 1.8 1.8h1.2a.6.6 0 1 0 0-1.2H2.2a.6.6 0 0 1-.6-.6V9.483a1.8 1.8 0 0 1 .995-1.61l1.073-.536a.6.6 0 0 0 .29-.314L5.753 2.53A1.8 1.8 0 0 1 7.424 1.4h6.617a1.8 1.8 0 0 1 1.544.874l2.9 4.835a.6.6 0 0 0 .397.28l4.071.813A1.8 1.8 0 0 1 24.4 9.968V14a.6.6 0 0 1-.6.6h-1.2a.6.6 0 1 0 0 1.2h1.2a1.8 1.8 0 0 0 1.8-1.8V9.968a3 3 0 0 0-2.412-2.942l-3.81-.762-2.764-4.607zM17.8 14.6H8.2a.6.6 0 1 0 0 1.2h9.6a.6.6 0 1 0 0-1.2z"/>
    </g>
</svg>
