<svg xmlns="http://www.w3.org/2000/svg" width="26" height="24" viewBox="0 0 26 24">
    <g fill="#5C6265" fill-rule="nonzero">
        <path d="M4 19.8v1.8a.6.6 0 1 0 1.2 0v-1.8H4zm-.6-1.2h2.4a.6.6 0 0 1 .6.6v2.4a1.8 1.8 0 0 1-3.6 0v-2.4a.6.6 0 0 1 .6-.6zm16.8 0h2.4a.6.6 0 0 1 .6.6v2.4a1.8 1.8 0 0 1-3.6 0v-2.4a.6.6 0 0 1 .6-.6zm.6 1.2v1.8a.6.6 0 1 0 1.2 0v-1.8h-1.2zM6.4 13.8V15h13.2v-1.2H6.4zm-.6-1.2h14.4a.6.6 0 0 1 .6.6v2.4a.6.6 0 0 1-.6.6H5.8a.6.6 0 0 1-.6-.6v-2.4a.6.6 0 0 1 .6-.6z"/>
        <path d="M22.6 19.8H3.4A1.8 1.8 0 0 1 1.6 18v-6A3 3 0 0 1 4 6.66V6.6a6 6 0 0 1 6-6h6a6 6 0 0 1 6 6v.06A3 3 0 0 1 24.4 12v6a1.8 1.8 0 0 1-1.8 1.8zM6.4 18.6h13.2v-9c0-.981.471-1.853 1.2-2.4v-.6A4.8 4.8 0 0 0 16 1.8h-6a4.8 4.8 0 0 0-4.8 4.8v.6a2.995 2.995 0 0 1 1.2 2.4v9zm-1.2 0v-9a1.8 1.8 0 1 0-2.7 1.56.6.6 0 0 1 .3.519V18a.6.6 0 0 0 .6.6h1.8zm15.6 0h1.8a.6.6 0 0 0 .6-.6v-6.321a.6.6 0 0 1 .3-.52 1.799 1.799 0 0 0-.9-3.359 1.8 1.8 0 0 0-1.8 1.8v9z"/>
    </g>
</svg>
