<svg xmlns="http://www.w3.org/2000/svg" width="26" height="26" viewBox="0 0 26 26">
    <g fill="none" fill-rule="evenodd">
        <path d="M-2-2h30v30H-2z"/>
        <path fill="#5C6265" fill-rule="nonzero" d="M21.596 23.2a4.2 4.2 0 0 1-3.796 2.4H8.2a4.2 4.2 0 0 1-3.796-2.4H3.4a3 3 0 0 1-3-3v-4.8a1.8 1.8 0 0 1 1.8-1.8H4V9.94A3.001 3.001 0 0 1 1.6 7V2.2A1.8 1.8 0 0 1 3.4.4h19.2a1.8 1.8 0 0 1 1.8 1.8V7A3.001 3.001 0 0 1 22 9.94v3.66h1.8a1.8 1.8 0 0 1 1.8 1.8v4.8a3 3 0 0 1-3 3h-1.004zm-.796-1.8V10H5.2v11.4a3 3 0 0 0 3 3h9.6a3 3 0 0 0 3-3zM3.4 1.6a.6.6 0 0 0-.6.6V7a1.8 1.8 0 0 0 1.8 1.8h16.8A1.8 1.8 0 0 0 23.2 7V2.2a.6.6 0 0 0-.6-.6H3.4zM4 22v-7.2H2.2a.6.6 0 0 0-.6.6v4.8A1.8 1.8 0 0 0 3.4 22H4zm18 0h.6a1.8 1.8 0 0 0 1.8-1.8v-4.8a.6.6 0 0 0-.6-.6H22V22z"/>
        <path fill="#5C6265" fill-rule="nonzero" d="M8.8 17.2V19a1.8 1.8 0 0 0 1.8 1.8h4.8a1.8 1.8 0 0 0 1.8-1.8v-1.8H8.8zM8.2 16h9.6a.6.6 0 0 1 .6.6V19a3 3 0 0 1-3 3h-4.8a3 3 0 0 1-3-3v-2.4a.6.6 0 0 1 .6-.6zm-.6-9a.6.6 0 0 1 1.2 0v4.8a.6.6 0 1 1-1.2 0V7zm9.6 0a.6.6 0 1 1 1.2 0v4.8a.6.6 0 1 1-1.2 0V7z"/>
    </g>
</svg>
