<?xml version="1.0" standalone="no"?>
<!DOCTYPE svg PUBLIC "-//W3C//DTD SVG 20010904//EN"
 "http://www.w3.org/TR/2001/REC-SVG-20010904/DTD/svg10.dtd">
<svg version="1.0" xmlns="http://www.w3.org/2000/svg"
 width="700.000000pt" height="700.000000pt" viewBox="0 0 700.000000 700.000000"
 preserveAspectRatio="xMidYMid meet">
<metadata>
Created by potrace 1.11, written by Peter Selinger 2001-2013
</metadata>
<g transform="translate(0.000000,700.000000) scale(0.100000,-0.100000)"
fill="#000000" stroke="none">
<path d="M1933 5734 c-52 -26 -58 -54 -58 -298 0 -237 4 -260 54 -293 24 -16
71 -17 633 -18 333 0 609 -3 612 -6 4 -3 7 -854 7 -1890 1 -1674 3 -1888 16
-1917 27 -58 47 -62 291 -62 236 0 270 5 299 48 17 26 18 110 21 1927 l2 1900
613 1 c567 0 614 1 638 17 51 34 55 56 54 307 l-1 231 -32 32 -32 32 -1543 2
c-1382 2 -1545 1 -1574 -13z"/>
</g>
</svg>
