<?xml version="1.0" encoding="UTF-8"?>
<svg width="32px" height="32px" viewBox="0 0 32 32" version="1.1" xmlns="http://www.w3.org/2000/svg" xmlns:xlink="http://www.w3.org/1999/xlink">
    <!-- Generator: Sketch 51.3 (57544) - http://www.bohemiancoding.com/sketch -->
    <title>Group 4</title>
    <desc>Created with Sketch.</desc>
    <defs>
        <path d="M7.13,6.4 L11.712,1.792 C11.9824333,1.50115283 11.9742035,1.04844805 11.6933777,0.767622272 C11.412552,0.486796497 10.9598472,0.478566728 10.669,0.749 L6.086,5.338 L1.504,0.748 C1.21543122,0.459983503 0.748016497,0.460431218 0.46,0.749 C0.171983503,1.03756878 0.172431218,1.5049835 0.461,1.793 L5.043,6.4 L0.461,10.957 C0.247856789,11.1672197 0.18328229,11.4855956 0.297675818,11.7622479 C0.412069345,12.0389002 0.682634861,12.2186984 0.982,12.217 C1.17794902,12.217038 1.365824,12.1389367 1.504,12 L6.086,7.418 L10.67,12 C10.81,12.138 10.998,12.216 11.195,12.218 C11.4998684,12.2208911 11.7754769,12.0369992 11.8898484,11.7543824 C12.0042199,11.4717656 11.9340738,11.1479512 11.713,10.938 L7.13,6.4 Z" id="path-1"></path>
    </defs>
    <g id="Page-1" stroke="none" stroke-width="1" fill="none" fill-rule="evenodd">
        <g id="Group-4" transform="translate(1.000000, 1.000000)">
            <circle id="Oval" stroke="#C9CFD3" stroke-width="0.5" fill="#000000" fill-rule="nonzero" cx="15" cy="15" r="15"></circle>
            <g id="Group" transform="translate(9.217000, 8.577000)">
                <g id="a-link" fill="#8C8F91" fill-rule="nonzero">
                    <path d="M7.13,6.4 L11.712,1.792 C11.9824333,1.50115283 11.9742035,1.04844805 11.6933777,0.767622272 C11.412552,0.486796497 10.9598472,0.478566728 10.669,0.749 L6.086,5.338 L1.504,0.748 C1.21543122,0.459983503 0.748016497,0.460431218 0.46,0.749 C0.171983503,1.03756878 0.172431218,1.5049835 0.461,1.793 L5.043,6.4 L0.461,10.957 C0.247856789,11.1672197 0.18328229,11.4855956 0.297675818,11.7622479 C0.412069345,12.0389002 0.682634861,12.2186984 0.982,12.217 C1.17794902,12.217038 1.365824,12.1389367 1.504,12 L6.086,7.418 L10.67,12 C10.81,12.138 10.998,12.216 11.195,12.218 C11.4998684,12.2208911 11.7754769,12.0369992 11.8898484,11.7543824 C12.0042199,11.4717656 11.9340738,11.1479512 11.713,10.938 L7.13,6.4 Z" id="a"></path>
                </g>
                <g id="Clipped">
                    <mask id="mask-2" fill="white">
                        <use xlink:href="#path-1"></use>
                    </mask>
                    <g id="a"></g>
                    <g id="Group" mask="url(#mask-2)" fill="#FFFFFF" fill-rule="nonzero">
                        <g transform="translate(-2.000000, -2.000000)" id="Shape">
                            <polygon points="0.08 0.72 32.08 0.72 32.08 32.72 0.08 32.72"></polygon>
                        </g>
                    </g>
                </g>
            </g>
        </g>
    </g>
</svg>