<svg xmlns="http://www.w3.org/2000/svg" width="113" height="111" viewBox="0 0 113 111">
    <g fill="none" fill-rule="nonzero">
        <path fill="#E54498" d="M90 72.44a2.59 2.59 0 1 1 2.9-2.57 1.5 1.5 0 0 0 3 0 5.66 5.66 0 0 0-4.4-5.39v-2.57a1.5 1.5 0 0 0-3 0v2.57a5.63 5.63 0 0 0-4.39 5.39 5.82 5.82 0 0 0 6 5.64 2.58 2.58 0 1 1-2.9 2.56 1.5 1.5 0 0 0-3 0 5.66 5.66 0 0 0 4.39 5.39V86a1.5 1.5 0 0 0 3 0v-2.57a5.63 5.63 0 0 0 4.39-5.39 5.77 5.77 0 0 0-5.99-5.6z"/>
        <path fill="#4BBCAC" d="M106.49 100.32l-3-.24 1.49.12-1.5-.11a5.24 5.24 0 0 0-1.31-3.65c-1.14-1.19-3-1.74-5.53-1.68-8.35.24-16.54 0-17.62 0-.63.09-3.9.81-4 5.47l-3-.08c.18-6.13 4.54-8.17 6.82-8.39H79c.09 0 8.74.26 17.57 0 3.44-.09 6.05.79 7.8 2.64a8.27 8.27 0 0 1 2.12 5.92z"/>
        <path fill="#4BBCAC" d="M110.09 101.35v6.2H68.4v-6.2h41.69zm2.75-2.76H65.65v11.71h47.19V98.59zM52.37 3.68A3.9 3.9 0 0 1 55.18 5c3.23 3.22-1.32 6.62-1.32 6.62l29.81 30a5.44 5.44 0 0 1 3.63-1.84 3.94 3.94 0 0 1 2.64 1.1c3.23 2.83-.93 6.5-.93 6.5S75.36 60.84 74.42 61.69c-.7.62-2.72 3.12-5 3.12A3.49 3.49 0 0 1 67 63.73c-3.17-3 1.4-7 1.4-7S40.26 27.18 38.27 27.18a.11.11 0 0 0-.08 0 5.77 5.77 0 0 1-3.72 1.89 3.64 3.64 0 0 1-2.81-1.47c-2.59-3 .73-5.88.73-5.88L48.51 5.61a6 6 0 0 1 3.86-1.93zm0-3a8.9 8.9 0 0 0-6 2.85l-16 16a8.82 8.82 0 0 0-2 2.72 7 7 0 0 0 6.13 9.8 7.33 7.33 0 0 0 3.92-1.21c4 3.45 15.37 14.87 25.94 25.92a8.24 8.24 0 0 0-1.49 4.31 6.29 6.29 0 0 0 2 4.77 6.46 6.46 0 0 0 4.52 1.92c3.18 0 5.57-2.43 6.72-3.59l.29-.3c1-.86 13-12.8 14.65-14.42.67-.6 3.11-3 3.1-6.22a6.14 6.14 0 0 0-2.25-4.72 7 7 0 0 0-4.62-1.84 7.28 7.28 0 0 0-3.35.87L58 11.49a7.4 7.4 0 0 0 1.31-3.59 6.38 6.38 0 0 0-2-5.07A6.88 6.88 0 0 0 52.38.68h-.01z"/>
        <path fill="#4BBCAC" d="M66.2 58.41a1.48 1.48 0 0 1-1.06-.41 1.5 1.5 0 0 1 0-2.13l16.71-16.74a1.503 1.503 0 0 1 2.15 2.1L67.26 58a1.47 1.47 0 0 1-1.06.41zM39.12 30a1.5 1.5 0 0 1-1.07-2.56l16.69-16.7a1.503 1.503 0 0 1 2.12 2.13L40.18 29.51a1.53 1.53 0 0 1-1.06.49zM49.32 41.88c.41.32 1.09 1 1.78 1.67.85.86 1.72 1.78 2.15 2.22L8.3 91.21a2.65 2.65 0 0 1-1.88.77 2.76 2.76 0 0 1-2-.81 2.73 2.73 0 0 1-.08-3.84l44.98-45.45zm-.27-4l-1.86 1.88L2.24 85.21a5.59 5.59 0 0 0-1.62 4.08 5.82 5.82 0 0 0 5.8 5.69 5.61 5.61 0 0 0 4-1.66l44.96-45.44 2.05-2.07-2-2.11-.22-.23c-.48-.5-1.23-1.29-2-2a21.49 21.49 0 0 0-2.08-1.93l-2.1-1.62.02-.04z"/>
    </g>
</svg>
