<?xml version="1.0" encoding="UTF-8"?>
<svg width="74px" height="32px" viewBox="0 0 74 32" version="1.1" xmlns="http://www.w3.org/2000/svg" xmlns:xlink="http://www.w3.org/1999/xlink">
    <!-- Generator: sketchtool 53.1 (72631) - https://sketchapp.com -->
    <title>1DC25E78-9DF2-40B5-9DD2-1AD944025DE7</title>
    <desc>Created with sketchtool.</desc>
    <g id="B2C-Desktop" stroke="none" stroke-width="1" fill="none" fill-rule="evenodd">
        <g id="01_B2C" transform="translate(-112.000000, -87.000000)" fill="#FFFFFF">
            <g id="Group-5" transform="translate(112.000000, 87.000000)">
                <path d="M21.4744347,5 L19.5255653,5 C19.235401,5 19,5.2788536 19,5.62290214 L19,24.3777434 C19,24.7211464 19.235401,25 19.5255653,25 L21.4744347,25 C21.7643266,25 22,24.7211464 22,24.3777434 L22,5.62290214 C22,5.2788536 21.7643266,5 21.4744347,5" id="Fill-1"></path>
                <path d="M17.3904408,0 L0.608611735,0 C0.27256457,0 0,0.272311242 0,0.607657493 L0,2.86241979 C0,3.19808121 0.27256457,3.47039246 0.608611735,3.47039246 L4.43620157,3.47039246 L6.90665357,3.47039246 L7.26133492,3.47039246 L7.26133492,24.3923425 C7.26133492,24.7280039 7.53389949,25 7.86994666,25 L10.1294217,25 C10.4661005,25 10.7383492,24.7280039 10.7383492,24.3923425 L10.7383492,3.47039246 L17.3904408,3.47039246 C17.7271196,3.47039246 18,3.19808121 18,2.86241979 L18,0.607657493 C18,0.272311242 17.7271196,0 17.3904408,0" id="Fill-3"></path>
                <path d="M50.4744347,5 L48.5255653,5 C48.235401,5 48,5.2788536 48,5.62290214 L48,24.3777434 C48,24.7211464 48.235401,25 48.5255653,25 L50.4744347,25 C50.7643266,25 51,24.7211464 51,24.3777434 L51,5.62290214 C51,5.2788536 50.7643266,5 50.4744347,5" id="Fill-5"></path>
                <path d="M70.7711302,17.6013159 C70.7711302,17.7112933 70.727971,17.8168208 70.6522094,17.8943772 L67.0588149,21.5732176 C66.9830533,21.650774 66.8796575,21.69432 66.7722251,21.69432 L62.2277749,21.69432 C62.120032,21.69432 62.0172572,21.650774 61.9411851,21.5732176 L58.3477906,17.8943772 C58.272029,17.8168208 58.2288698,17.7112933 58.2288698,17.6013159 L58.2288698,12.3993198 C58.2288698,12.2890245 58.272029,12.183497 58.3477906,12.1056228 L61.9411851,8.42710022 C62.0172572,8.34954388 62.120032,8.30568005 62.2277749,8.30568005 L66.7722251,8.30568005 C66.8796575,8.30568005 66.9830533,8.34954388 67.0588149,8.42710022 L70.6522094,12.1056228 C70.727971,12.183497 70.7711302,12.2890245 70.7711302,12.3993198 L70.7711302,17.6013159 Z M73.8223951,10.6762341 L68.4554354,5.18149455 C68.3414825,5.06547789 68.1874755,5 68.026948,5 L60.973052,5 C60.812835,5 60.658828,5.06547789 60.5445646,5.18149455 L55.1776049,10.6762341 C55.0636521,10.7928864 55,10.9505419 55,11.1148724 L55,18.8854455 C55,19.0497759 55.0636521,19.2077493 55.1776049,19.3237659 L60.5445646,24.8188233 C60.658828,24.93484 60.812835,25 60.973052,25 L68.026948,25 C68.1874755,25 68.3414825,24.93484 68.4554354,24.8188233 L73.8223951,19.3237659 C73.9363479,19.2077493 74,19.0497759 74,18.8854455 L74,11.1148724 C74,10.9505419 73.9363479,10.7928864 73.8223951,10.6762341 L73.8223951,10.6762341 Z" id="Fill-7"></path>
                <path d="M40.7897927,17.6546757 C40.7897927,17.7628079 40.7494241,17.8667689 40.6780259,17.9434561 L37.2795322,21.5628365 C37.2072302,21.6395237 37.1093213,21.6828407 37.0080985,21.6828407 L34.4648768,21.6799529 C34.3494949,21.6799529 34.2347156,21.6600592 34.1256601,21.6212343 L30.3165515,19.078042 L30.3165515,11.4815145 L34.131384,8.54140968 C34.2374269,8.51862812 34.3449761,8.5070769 34.4531278,8.5070769 L37.0080985,8.5070769 C37.1093213,8.5070769 37.2072302,8.55007309 37.2795322,8.62708118 L40.6780259,12.2464615 C40.7494241,12.3231488 40.7897927,12.4271097 40.7897927,12.5355628 L40.7897927,17.6546757 Z M38.6204324,5.18321509 C38.5098706,5.06609861 38.3607478,5 38.2046961,5 L33.2592415,5 C33.1417508,5 33.0269715,5.03818318 32.9299663,5.1090948 L30.3165515,7.02499198 L30.3165515,5.91511284 C30.3165515,5.57884417 30.0610845,5.30610717 29.7453659,5.30610717 L27.5711855,5.30610717 C27.255467,5.30610717 27,5.57884417 27,5.91511284 L27,31.3813683 C27,31.7230917 27.2599858,32 27.5811271,32 L29.7360269,32 C30.0568669,32 30.3165515,31.7230917 30.3165515,31.3813683 L30.3165515,23.1652465 L32.9299663,25.0808228 C33.0269715,25.1520553 33.1417508,25.1895968 33.2592415,25.1895968 L38.2046961,25.1895968 C38.3607478,25.1895968 38.5098706,25.123819 38.6204324,25.0067026 L43.8276803,19.4595529 C43.9382421,19.3424365 44,19.1829655 44,19.0170773 L44,11.1728404 C44,11.0069521 43.9382421,10.8478021 43.8276803,10.7300439 L38.6204324,5.18321509 Z" id="Fill-9"></path>
            </g>
        </g>
    </g>
</svg>