<svg width="17" height="17" viewBox="0 0 17 17" fill="none" xmlns="http://www.w3.org/2000/svg">
    <path d="M9.06206 3.87043C9.06206 3.70882 9.00775 3.56637 8.90545 3.46407C8.80316 3.36178 8.66071 3.30747 8.4991 3.30747C8.33748 3.30747 8.19503 3.36178 8.09274 3.46407C7.99044 3.56637 7.93613 3.70882 7.93613 3.87043V8.50006C7.93613 8.66168 7.99044 8.80412 8.09274 8.90642C8.19503 9.00872 8.33748 9.06303 8.4991 9.06303H12.2028C12.3644 9.06303 12.5069 9.00872 12.6092 8.90642C12.7115 8.80412 12.7658 8.66168 12.7658 8.50006C12.7658 8.33845 12.7115 8.196 12.6092 8.0937C12.5069 7.99141 12.3644 7.9371 12.2028 7.9371H9.06206V3.87043Z" fill="#5D6365" stroke="#5C6265" stroke-width="0.2"/>
    <path d="M0.528906 8.50001C0.528906 12.9071 4.0922 16.4704 8.49928 16.4704C12.9064 16.4704 16.4696 12.9071 16.4696 8.50001C16.4696 4.09293 12.9064 0.529639 8.49928 0.529639C4.0922 0.529639 0.528906 4.09293 0.528906 8.50001ZM15.3437 8.50001C15.3437 12.2411 12.2403 15.3445 8.49928 15.3445C4.75821 15.3445 1.65483 12.2411 1.65483 8.50001C1.65483 4.75894 4.75821 1.65556 8.49928 1.65556C12.2403 1.65556 15.3437 4.75894 15.3437 8.50001Z" fill="#5D6365" stroke="#5C6265" stroke-width="0.2"/>
</svg>
