<svg xmlns="http://www.w3.org/2000/svg" width="23" height="23" viewBox="0 0 23 23">
    <path fill="#5C6265" fill-rule="nonzero" d="M18.619 8.762h2.738a.548.548 0 0 0 .548-.548v-4.38a2.738 2.738 0 0 0-2.738-2.739h-3.872a3.834 3.834 0 0 1-7.59 0H3.833a2.738 2.738 0 0 0-2.738 2.738v4.381c0 .303.245.548.548.548H4.38V7.119a.548.548 0 1 1 1.095 0v14.238c0 .303.245.548.548.548h10.952a.548.548 0 0 0 .548-.548V7.12a.548.548 0 1 1 1.095 0v1.643zm0 1.095v11.5c0 .907-.735 1.643-1.643 1.643H6.024a1.643 1.643 0 0 1-1.643-1.643v-11.5H1.643A1.643 1.643 0 0 1 0 8.214v-4.38A3.833 3.833 0 0 1 3.833 0h4.381c.303 0 .548.245.548.548a2.738 2.738 0 0 0 5.476 0c0-.303.245-.548.548-.548h4.38A3.833 3.833 0 0 1 23 3.833v4.381c0 .908-.736 1.643-1.643 1.643H18.62z"/>
</svg>
