<?xml version="1.0" encoding="UTF-8"?>
<svg width="11px" height="12px" viewBox="0 0 11 12" version="1.1" xmlns="http://www.w3.org/2000/svg" xmlns:xlink="http://www.w3.org/1999/xlink">
    <!-- Generator: Sketch 51.3 (57544) - http://www.bohemiancoding.com/sketch -->
    <title>Shape</title>
    <desc>Created with Sketch.</desc>
    <defs></defs>
    <g id="Page-1" stroke="none" stroke-width="1" fill="none" fill-rule="evenodd">
        <g id="clock-white" fill="#FFFFFF" fill-rule="nonzero">
            <path d="M2.389,10.076 C0.15,8.459 -0.535,5.386 0.799,2.945 C0.782753212,2.93246557 0.769156984,2.91682991 0.759,2.899 L0.443,2.5 C0.200209921,2.19499393 0.0896779189,1.8054606 0.136088522,1.41839241 C0.182499124,1.03132423 0.381986433,0.678963106 0.69,0.44 C1.33772383,-0.056686986 2.26473886,0.0615888843 2.767,0.705 L2.874,0.843 C4.50053613,-0.0866488941 6.49746387,-0.0866488941 8.124,0.843 L8.231,0.705 C8.73310276,0.0599953615 9.66167824,-0.0588122766 10.31,0.439 C10.6195863,0.676981684 10.8208564,1.02913159 10.8687813,1.41666502 C10.9167061,1.80419845 10.8072857,2.19477033 10.565,2.501 L10.247,2.899 C10.236843,2.91682991 10.2232468,2.93246557 10.207,2.945 C11.54,5.388 10.853,8.461 8.612,10.075 L9.676,11.158 C9.786,11.27 9.786,11.45 9.676,11.562 C9.6240269,11.6155189 9.55260213,11.645719 9.478,11.645719 C9.40339787,11.645719 9.3319731,11.6155189 9.28,11.562 L8.148,10.41 C6.52954968,11.3243657 4.55045032,11.3243657 2.932,10.41 L1.8,11.562 C1.7480269,11.6155189 1.67660213,11.645719 1.602,11.645719 C1.52739787,11.645719 1.4559731,11.6155189 1.404,11.562 C1.29424122,11.4496978 1.29424122,11.2703022 1.404,11.158 L2.389,10.076 Z M9.884,2.432 L10.116,2.138 C10.2623782,1.95229966 10.3285516,1.71584027 10.2998239,1.48113636 C10.2710961,1.24643245 10.1498454,1.03291377 9.963,0.888 C9.56150859,0.58280966 8.99016817,0.65190199 8.673,1.044 L8.611,1.136 C9.105,1.491 9.536,1.929 9.884,2.432 Z M1.116,2.432 C1.46299905,1.93029908 1.89359229,1.49192606 2.389,1.136 L2.326,1.05 C2.00883183,0.65790199 1.43749141,0.58880966 1.036,0.894 C0.849154584,1.03891377 0.727903907,1.25243245 0.699176148,1.48713636 C0.67044839,1.72184027 0.736621751,1.95829966 0.883,2.144 L1.116,2.432 Z M5.5,10.496 C8.156,10.496 10.309,8.304 10.309,5.6 C10.309,2.896 8.156,0.704 5.5,0.704 C2.844,0.704 0.691,2.896 0.691,5.6 C0.695,8.303 2.846,10.493 5.5,10.496 Z M4.007,4.16 L5.523,5.761 L8.13,3.094 C8.1819731,3.04048108 8.25339787,3.01028104 8.328,3.01028104 C8.40260213,3.01028104 8.4740269,3.04048108 8.526,3.094 C8.635,3.206 8.635,3.386 8.526,3.498 L5.697,6.378 C5.64410884,6.43396526 5.5705038,6.465678 5.4935,6.465678 C5.4164962,6.465678 5.34289116,6.43396526 5.29,6.378 L3.594,4.54 C3.48149387,4.42687748 3.48149387,4.24412252 3.594,4.131 C3.65011903,4.07477716 3.72787605,4.04567689 3.80711866,4.05124114 C3.88636128,4.05680539 3.95928861,4.09648641 4.007,4.16 Z" id="Shape"></path>
        </g>
    </g>
</svg>