<svg width="16" height="16" viewBox="0 0 16 16" fill="none" xmlns="http://www.w3.org/2000/svg">
    <path d="M7.37038 3.29615C7.37038 3.07393 7.22223 2.92578 7.00001 2.92578C6.77779 2.92578 6.62964 3.07393 6.62964 3.29615V6.99985C6.62964 7.22208 6.77779 7.37022 7.00001 7.37022H9.96297C10.1852 7.37022 10.3333 7.22208 10.3333 6.99985C10.3333 6.77763 10.1852 6.62948 9.96297 6.62948H7.37038V3.29615Z" fill="#5D6365"/>
    <path d="M7.00003 13.2957C3.51855 13.2957 0.703735 10.4809 0.703735 6.99942C0.703735 3.51794 3.51855 0.703125 7.00003 0.703125C10.4815 0.703125 13.2963 3.51794 13.2963 6.99942C13.2963 10.4809 10.4815 13.2957 7.00003 13.2957ZM7.00003 12.555C10.0371 12.555 12.5556 10.0365 12.5556 6.99942C12.5556 3.96238 10.0371 1.44387 7.00003 1.44387C3.96299 1.44387 1.44448 3.96238 1.44448 6.99942C1.44448 10.0365 3.96299 12.555 7.00003 12.555Z" fill="#5D6365"/>
</svg>
