<svg xmlns="http://www.w3.org/2000/svg" width="20" height="20" viewBox="0 0 20 20">
    <path fill="#FFF" fill-rule="evenodd" d="M8.219 14.437a6.182 6.182 0 0 0 4.406-1.825 6.169 6.169 0 0 0 1.813-4.393 6.22 6.22 0 0 0-1.813-4.405 6.224 6.224 0 0 0-4.406-1.812 6.167 6.167 0 0 0-4.392 1.812 6.178 6.178 0 0 0-1.825 4.405c0 1.662.642 3.222 1.812 4.393a6.178 6.178 0 0 0 4.405 1.825zM18.577 20l-5.298-5.299a8.185 8.185 0 0 1-5.06 1.737 8.213 8.213 0 0 1-5.815-2.404A8.172 8.172 0 0 1 0 8.22c0-2.203.856-4.267 2.404-5.815A8.214 8.214 0 0 1 8.22 0a8.17 8.17 0 0 1 5.815 2.404 8.127 8.127 0 0 1 2.417 5.815 8.2 8.2 0 0 1-1.75 5.06L20 18.576 18.577 20z"/>
</svg>
