<svg width="18" height="16" viewBox="0 0 18 16" fill="none" xmlns="http://www.w3.org/2000/svg">
    <path
            d="M15.7197 13.2H16.1997C16.4397 13.2 16.5997 13.04 16.5997 12.8V10.8H1.39969V12.8C1.39969 13.04 1.55969 13.2 1.79969 13.2H2.27969C2.43969 12.32 3.23969 11.6 4.19969 11.6C5.15969 11.6 5.95969 12.32 6.11969 13.2H11.7997C11.9597 12.32 12.7597 11.6 13.7197 11.6C14.6797 11.6 15.5597 12.32 15.7197 13.2ZM15.7197 14C15.5597 14.88 14.7597 15.6 13.7997 15.6C12.8397 15.6 12.0397 14.88 11.8797 14H6.19969C6.03969 14.88 5.23969 15.6 4.27969 15.6C3.31969 15.6 2.51969 14.88 2.35969 14H1.87969C1.23969 14 0.679688 13.44 0.679688 12.8V3.19999C0.679688 1.67999 1.95969 0.399994 3.47969 0.399994H9.07969C10.5197 0.399994 11.6397 1.43999 11.8797 2.79999H13.1597C14.0397 2.79999 14.8397 3.2 15.3997 3.92L16.9997 5.92C17.3997 6.4 17.5597 7.03999 17.5597 7.59999V12.8C17.5597 13.44 16.9997 14 16.3597 14H15.7197ZM11.7997 9.99999H16.5997V7.59999H11.7997V9.99999ZM11.7997 6.79999H16.4397C16.3597 6.63999 16.2797 6.55999 16.1997 6.39999L14.5997 4.39999C14.1997 3.91999 13.6397 3.59999 12.9997 3.59999H11.7997V6.79999ZM1.39969 9.99999H10.9997V3.19999C10.9997 2.07999 10.1197 1.19999 8.99969 1.19999H3.39969C2.27969 1.19999 1.39969 2.07999 1.39969 3.19999V9.99999ZM4.19969 14.8C4.83969 14.8 5.39969 14.24 5.39969 13.6C5.39969 12.96 4.83969 12.4 4.19969 12.4C3.55969 12.4 2.99969 12.96 2.99969 13.6C2.99969 14.24 3.55969 14.8 4.19969 14.8ZM13.7997 14.8C14.4397 14.8 14.9997 14.24 14.9997 13.6C14.9997 12.96 14.4397 12.4 13.7997 12.4C13.1597 12.4 12.5997 12.96 12.5997 13.6C12.5997 14.24 13.1597 14.8 13.7997 14.8Z"
            fill="#5D6365"/>
</svg>