<?xml version="1.0" encoding="UTF-8"?>
<svg width="376px" height="605px" viewBox="0 0 376 605" version="1.1" xmlns="http://www.w3.org/2000/svg" xmlns:xlink="http://www.w3.org/1999/xlink">
    <!-- Generator: Sketch 51.3 (57544) - http://www.bohemiancoding.com/sketch -->
    <title>google</title>
    <desc>Created with Sketch.</desc>
    <defs></defs>
    <g id="Page-1" stroke="none" stroke-width="1" fill="none" fill-rule="evenodd">
        <g id="google" fill="#FFFFFF" fill-rule="nonzero">
            <path d="M309.025,341.7 L280.974,321.3 C270.774,313.651 260.575,303.45 260.575,285.6 C260.575,267.75 273.325,252.45 286.075,244.8 C319.225,219.3 352.375,191.25 352.375,135.15 C352.375,81.6 319.225,51 301.375,35.7 L344.725,35.7 L375.325,0 L217.225,0 C105.025,0 48.925,71.4 48.925,147.9 C48.925,206.55 94.825,270.3 176.425,270.3 L196.825,270.3 C194.275,277.95 186.625,290.7 186.625,303.45 C186.625,328.95 196.825,339.15 209.575,354.45 C173.875,357 107.575,364.65 59.125,395.25 C13.225,423.3 0.475,461.55 0.475,489.6 C0.475,548.25 54.025,604.35 168.775,604.35 C306.475,604.35 372.776,527.85 372.776,453.901 C372.775,400.35 344.725,372.3 309.025,341.7 Z M115.225,109.65 C115.225,53.55 148.375,28.05 184.075,28.05 C250.375,28.05 286.075,117.3 286.075,168.3 C286.075,234.6 232.525,247.35 212.125,247.35 C148.375,247.35 115.225,168.3 115.225,109.65 Z M207.024,568.65 C122.874,568.65 69.324,530.4 69.324,474.299 C69.324,418.199 120.324,400.349 135.624,392.699 C168.774,382.499 212.124,379.949 219.774,379.949 C227.424,379.949 232.524,379.949 237.624,379.949 C298.824,423.299 324.324,441.149 324.324,481.949 C324.324,530.4 275.875,568.65 207.024,568.65 Z" id="Shape"></path>
        </g>
    </g>
</svg>