<svg xmlns="http://www.w3.org/2000/svg" width="102" height="100" viewBox="0 0 102 100">
    <g fill="none" fill-rule="evenodd">
        <path stroke="#4BBCAC" stroke-width="3" d="M99.89 79.77a11.6 11.6 0 0 0-13.8-7H86l-17 4.9a9.82 9.82 0 0 0-9.3-6.8h-8.8a10 10 0 0 1-5.1-1.4c-3.4-2-10.1-5.1-18-4.3h-.1c-.2 0-5 .8-8.8 1.7v-1.3a2 2 0 0 0-2-2H4.19a2 2 0 0 0-2 2V92a2 2 0 0 0 2 2h12.7a2 2 0 0 0 2-2v-1.2l5.9 1.2 26.4 4.9c2.1.48 4.247.715 6.4.7a28.2 28.2 0 0 0 10.4-1.9h.1l30.6-13.4a2.06 2.06 0 0 0 1.2-2.53z"/>
        <path fill="#E54498" fill-rule="nonzero" d="M59.13 60.64l-6.47-6.47h-9.09a4.29 4.29 0 0 1-4.28-4.28v-9.08l-6.47-6.47a4.27 4.27 0 0 1 0-6l6.47-6.47v-9.11a4.29 4.29 0 0 1 4.28-4.28h9.09L59.13 2a4.27 4.27 0 0 1 6 0l6.47 6.47h9.09A4.29 4.29 0 0 1 85 12.76v9.09l6.47 6.47a4.27 4.27 0 0 1 0 6L85 40.81V50a4.29 4.29 0 0 1-4.28 4.28h-9.1l-6.47 6.47A4.52 4.52 0 0 1 62.1 62a3.91 3.91 0 0 1-2.97-1.36zM71 11.63a1.66 1.66 0 0 1-1.14-.44L63 4.29a1.22 1.22 0 0 0-1.66 0l-6.9 6.9a1.84 1.84 0 0 1-1.14.44h-9.81a1.16 1.16 0 0 0-1.14 1.14v9.7a1.66 1.66 0 0 1-.44 1.14L35 30.5a1.22 1.22 0 0 0 0 1.66l6.9 6.9c.272.319.427.721.44 1.14v9.87a1.16 1.16 0 0 0 1.14 1.14h9.79a1.66 1.66 0 0 1 1.14.44l6.9 6.9a1.22 1.22 0 0 0 1.66 0l6.9-6.9a1.84 1.84 0 0 1 1.13-.44h9.79a1.16 1.16 0 0 0 1.14-1.14v-9.78a1.66 1.66 0 0 1 .44-1.14l6.9-6.9a1.22 1.22 0 0 0 0-1.66l-7-6.9a1.84 1.84 0 0 1-.44-1.14v-9.79a1.16 1.16 0 0 0-1.14-1.14l-9.69.01z"/>
        <path fill="#E54498" fill-rule="nonzero" d="M62 29.8a2.73 2.73 0 1 1 3.06-2.71 1.575 1.575 0 1 0 3.15 0 6 6 0 0 0-4.63-5.68V18.7a1.575 1.575 0 1 0-3.15 0v2.71a5.94 5.94 0 0 0-4.63 5.68A6.14 6.14 0 0 0 62.1 33a2.73 2.73 0 1 1-3.1 2.74 1.575 1.575 0 1 0-3.15 0 6 6 0 0 0 4.63 5.68v2.71a1.575 1.575 0 1 0 3.15 0v-2.71a5.94 5.94 0 0 0 4.63-5.68A6.09 6.09 0 0 0 62 29.8z"/>
        <path stroke="#4BBCAC" stroke-linecap="round" stroke-width="3" d="M67.61 75A17.67 17.67 0 0 1 69 80.57s-1.14 2.89-20.35 1.71l-13.26-1.71M18.89 65.57v25.2"/>
    </g>
</svg>
