<svg xmlns="http://www.w3.org/2000/svg" width="135" height="145" viewBox="0 0 135 145">
    <g fill="none" fill-rule="nonzero">
        <path fill="#4BBCAC" d="M43.44 89.61L60.38 74 43.44 89.61zm9.77-16.08c.26-.44 11.69.89 11.69.34 0-1.7-2.9-2.87-4.52-2.87H44.66c-1.51 0-3.39.09-5.42.09-1.7 0-3.21 0-4.64-.1h-1.42c-7.59 0-11 3.15-12 4.22-4.57 4.22-7.14 14-9.25 24-.2 1-.37 1.78-.51 2.37-.94 3.93-.6 7.27.94 9.41a5.37 5.37 0 0 0 3.94 2.25c.173.01.347.01.52 0a6 6 0 0 0 5.73-4.58s.25-.66.11.77c-.51 5.19-.56 6.28-1.11 10.25-1.22 8.76-1.92 13.66-1.94 14.57v.11c-.2 1.37-.71 5 1.49 7.55a6.39 6.39 0 0 0 5 2.14h.07a6.74 6.74 0 0 0 5.3-2.25c2-2.31 2.5-9.06 2.8-12.78.4-3.09 1.52-9.39 1.54-10.9.19 2.21.91 17.52.91 18.1 0 5.12 2.74 8.56 6.83 8.56a7.6 7.6 0 0 0 1.4-.13 6.46 6.46 0 0 0 5.29-4.65 7.84 7.84 0 0 0 .28-3.21c-.09-.88-1.53-15.06-2.71-27.07l-1.08.93-1.8.53c1.22 12.52 2.68 26.41 2.62 27a3.54 3.54 0 0 1-3.11 3.39 5.52 5.52 0 0 1-.87.08c-3 0-3.83-3.12-3.83-5.56 0-2.66-2.05-22.3-2.05-22.3a5.2 5.2 0 0 0-.51-1.8 2.18 2.18 0 0 0-1.46-.36c-.46 0-.92.49-1.26 2-1.07 4.5-2.29 15.81-3.08 19.94-.84 4.34-.33 7.4-5.19 7.4-4.91 0-3.53-6-3.5-6.59.03-.59 4-41.62 4-41.62s.38-2.84-1.39-2.9c-.5 0-1.14 1-1.88 3.92-2 8.19-3.69 14-3.69 14s-.63 2.36-2.83 2.36h-.27c-2.42-.2-3.24-3.68-2.22-8s3.69-20.25 9-25c0 0 2.46-3.31 9.81-3.31h1.28c1.62.07 3.25.1 4.78.1 3.45 0 6.44-.14 8-.14l5.93-.26zM34.79 70.62c-5.611-.022-10.145-4.585-10.13-10.197.015-5.611 4.572-10.15 10.183-10.143C40.455 50.287 45 54.838 45 60.45a10.18 10.18 0 0 1-10.21 10.17zm0-17.33a7.17 7.17 0 1 0 .08 14.34 7.17 7.17 0 0 0-.08-14.34zM104.69 70.62a10.17 10.17 0 1 1 10.16-10.17c-.006 5.61-4.55 10.159-10.16 10.17zm0-17.33a7.17 7.17 0 1 0-.02 14.34 7.17 7.17 0 0 0 .02-14.34zM60.38 70.62a10.17 10.17 0 1 1 10.16-10.17c-.006 5.61-4.55 10.159-10.16 10.17zm0-17.33a7.17 7.17 0 1 0-.02 14.34 7.17 7.17 0 0 0 .02-14.34z"/>
        <path fill="#4BBCAC" d="M130 56.16a1.47 1.47 0 0 1 1.09.44c1.36 1.37 1.36 3.19 0 5.24-1.36 2.05-16.42 19.84-16.42 19.84a48.55 48.55 0 0 0-1.28 11.85c.14 6.38.83 18.24 1.51 19.83.5 1.16.51 3.51 1.78 3.51.49 0 1.15-.35 2.1-1.23 3.42-3.19 7.29-6.84 7.29-6.84a2 2 0 0 1 1.33-.49 3.17 3.17 0 0 1 2.09 1c2.05 1.82.46 4.56-1.37 6.38-1.83 1.82-10.25 9.8-10.25 9.8a6 6 0 0 1-3.38 1.26c-1.48 0-3.15-.81-4.38-3.76-2.73-6.61-3.64-8.67-3.64-8.67s-1.32-2.43-2.27-2.43c-.47 0-.85.61-.92 2.43-.23 5.47-1.37 23.94-1.37 23.94s-.65 3.43-4 3.43h-.32c-3.65-.23-2.74-2.51-2.74-4.56S96 89.43 96 89.43s-.54-5.93-4.65-9.81c-4.11-3.88-13.9-15.27-13.9-15.27a4.31 4.31 0 0 1 0-5.47 3 3 0 0 1 2.31-1.27c1.56 0 3.08 1.46 4.3 2.84 1.82 2.08 10.71 11.42 10.71 11.42s4.56 4.43 10 4.43a9.73 9.73 0 0 0 5.47-1.69c8.52-6.48 16.87-17.1 16.87-17.1a5.33 5.33 0 0 1 2.89-1.35zm0-3a7.86 7.86 0 0 0-4.81 2.13l-.18.17-.16.2c-.08.1-8.17 10.33-16.24 16.5a6.65 6.65 0 0 1-3.74 1.14c-4 0-7.55-3.22-7.91-3.55C96.17 69 88 60.4 86.34 58.47c-1.66-1.93-3.75-3.86-6.55-3.86A5.92 5.92 0 0 0 75.17 57a7.24 7.24 0 0 0 0 9.31c.44.51 10 11.6 14.15 15.53 2.89 2.73 3.59 7 3.7 7.76-.1 3.8-1.22 45.49-1.22 47.51v.83a6.16 6.16 0 0 0 1.17 4.85 6 6 0 0 0 4.42 1.87h.51a7.11 7.11 0 0 0 7-5.88v-.37c0-.55.64-10.36 1-17.66l1.39 3.35c2 4.89 5.35 5.62 7.15 5.62a9 9 0 0 0 5.28-1.93l.08-.07.08-.08c.34-.32 8.48-8 10.31-9.86 1.24-1.23 3.3-3.73 3.21-6.62a5.65 5.65 0 0 0-2-4.12 6.09 6.09 0 0 0-4.08-1.71 5 5 0 0 0-3.39 1.32l-6.23 5.84-.09-.2c-.45-1.63-1.14-11.57-1.3-18.81a46.39 46.39 0 0 1 1-10.4c3.34-3.94 14.83-17.57 16.15-19.55 2.17-3.25 2-6.63-.37-9a4.51 4.51 0 0 0-3.09-1.37z"/>
        <path fill="#4BBCAC" d="M59.1 73.92h1.28c5.48.26 7.8.62 9.5 1.76l.58.82 2-2.34a4 4 0 0 0-.91-1c-2.38-1.6-5.33-2-11-2.27h-1.42c-7.6 0-11 3.15-12 4.22-4.57 4.22-7.14 14-9.25 24-.2 1-.38 1.78-.51 2.37-.94 3.93-.6 7.27.94 9.41a5.37 5.37 0 0 0 3.94 2.25c.173.01.347.01.52 0a6 6 0 0 0 5.73-4.58s.31-1.09.81-2.94c-.26 13.19-.56 27.85-.59 29.26v.11c-.19 1.37-.71 5 1.49 7.55a6.41 6.41 0 0 0 5 2.14h.07a6.66 6.66 0 0 0 5.29-2.25 8.13 8.13 0 0 0 1.79-5v-5.7c.1 1.1-.73-15.77.33-15.83 1.06-.06 1.31 21.7 1.43 22.4.69 3.86 3.19 6.33 6.65 6.33a7.6 7.6 0 0 0 1.4-.13 6.46 6.46 0 0 0 5.25-4.5 7.84 7.84 0 0 0 .28-3.21c-.11-1.09-3.34-20.12-4.61-33.59.18.41.34.79.49 1.12.7 1.62 1.26 2.9 1.64 3.7 1 2.15 2.79 5 6.36 5a11.05 11.05 0 0 0 3.7-.81c2.73-1 4.89-4.15 3.73-8.34a3.3 3.3 0 0 0-.19-.49c0-.12-5.81-12.16-10-20.06a3.37 3.37 0 0 0-.19-.32l-2.46 1.72c4.2 7.94 10 20 10 20s1 3.68-1.84 4.7a8.54 8.54 0 0 1-2.7.64c-1.38 0-2.47-.82-3.65-3.3-1.57-3.32-7.16-17.08-8.57-17.08-.25 0-.36.4-.32 1.33.3 6.34 5.68 46.16 5.68 46.16s.58 3.8-3.1 4.46a5.52 5.52 0 0 1-.87.08c-2.57 0-3.56-2.34-3.78-4.54 0-.35-2.07-23.38-2.07-23.38s-.32-1.38-.9-1.76a2.22 2.22 0 0 0-2.14-.27c-.46.15-1.14.5-1.48 2-1.07 4.5-.95 23.29-1.07 24.27-.18 1.63-1 3.8-4 3.8-3.07 0-3.68-2.35-3.71-4.24 0-1.14.29-6.28.39-11.48.25-12.45.66-33.22.66-33.22s0-3.17-1.39-2.9c-.5 0-1.14 1-1.88 3.92-2 8.19-3.69 14-3.69 14s-.63 2.36-2.83 2.36h-.41c-2.42-.2-3.24-3.68-2.22-8s3.69-20.25 9-25c0 0 2.45-3.31 9.81-3.31"/>
        <path fill="#4BBCAC" d="M74 84.92c-2.61 0-6.11-.67-6.44-5.51a4.59 4.59 0 0 1 1.27-3.63c2-2.06 5.61-2 6-1.94h.2c.2 0 4.89 1 5.94 5.15a4.62 4.62 0 0 1-.44 4c-1.08 1.47-3 1.71-5 1.83-.43.07-.97.1-1.53.1zm.55-8.09c-.82 0-2.74.18-3.58 1a1.58 1.58 0 0 0-.42 1.33c.18 2.52 1.37 2.87 4.84 2.66.59 0 2.4-.15 2.74-.62.12-.16.17-.64 0-1.51-.52-2.08-3-2.78-3.48-2.91l-.1.05z"/>
        <path fill="#E54498" d="M14.27 38.3a1.54 1.54 0 0 1-1-.41L1.09 26.26a1.5 1.5 0 0 1 2.08-2.16l12.14 11.62a1.5 1.5 0 0 1-1 2.58h-.04zM118.35 38.3a1.46 1.46 0 0 1-1.08-.46 1.49 1.49 0 0 1 0-2.12l12.18-11.62a1.5 1.5 0 1 1 2.08 2.16l-12.14 11.63a1.54 1.54 0 0 1-1.04.41zM70.43 20.31a1.5 1.5 0 0 1-1.5-1.5V2a1.5 1.5 0 0 1 3 0v16.81a1.5 1.5 0 0 1-1.5 1.5zM100.24 23.65a1.49 1.49 0 0 1-.81-.23 1.51 1.51 0 0 1-.46-2.08L108 7.18a1.502 1.502 0 0 1 2.53 1.62L101.5 23a1.49 1.49 0 0 1-1.26.65zM38.38 24.17a1.5 1.5 0 0 1-1.38-.86l-7.17-15.2a1.503 1.503 0 0 1 2.72-1.28L39.73 22a1.49 1.49 0 0 1-1.35 2.14v.03z"/>
    </g>
</svg>
